<svg width="1000" height="1000" viewBox="0 0 1000 1000" fill="none" xmlns="http://www.w3.org/2000/svg">
<rect width="1000" height="1000" rx="160" fill="#E11D48"/>
<path d="M339.922 395.845L269.209 601H196.168L125.164 395.845H186.274L232.834 543.964L279.103 395.845H339.922ZM470.429 395.845V601H413.393V395.845H470.429ZM609.706 436.294C628.524 436.294 643.462 442.599 654.52 455.209C665.578 467.625 671.107 484.503 671.107 505.843V601H614.071V513.409C614.071 504.097 611.646 496.822 606.796 491.584C601.946 486.152 595.447 483.436 587.299 483.436C578.763 483.436 572.07 486.152 567.22 491.584C562.37 496.822 559.945 504.097 559.945 513.409V601H502.909V437.749H559.945V461.029C564.989 453.657 571.779 447.74 580.315 443.278C588.851 438.622 598.648 436.294 609.706 436.294ZM804.544 601L759.439 534.07V601H702.403V385.66H759.439V501.769L804.544 437.749H872.929L808.618 519.811L874.093 601H804.544Z" fill="white"/>
</svg>